<svg xmlns="http://www.w3.org/2000/svg" xmlns:xlink="http://www.w3.org/1999/xlink" width="250" zoomAndPan="magnify" viewBox="0 0 187.5 112.499997" height="150" preserveAspectRatio="xMidYMid meet" version="1.0"><defs><g/><clipPath id="id1"><path d="M 2 5.613281 L 67 5.613281 L 67 106.6875 L 2 106.6875 Z M 2 5.613281 " clip-rule="nonzero"/></clipPath></defs><g clip-path="url(#id1)"><path fill="#1f2b37" d="M 60.789062 66.191406 C 59.957031 65.640625 59.203125 65 58.53125 64.265625 C 57.855469 63.53125 57.285156 62.726562 56.8125 61.851562 C 56.339844 60.972656 55.980469 60.054688 55.738281 59.089844 C 55.496094 58.125 55.378906 57.144531 55.378906 56.152344 L 55.378906 50.5625 C 55.953125 50.613281 56.527344 50.621094 57.101562 50.578125 C 57.675781 50.53125 58.242188 50.441406 58.804688 50.304688 C 59.363281 50.164062 59.90625 49.980469 60.433594 49.753906 C 60.960938 49.523438 61.46875 49.253906 61.949219 48.9375 C 62.429688 48.625 62.882812 48.273438 63.304688 47.882812 C 63.730469 47.496094 64.117188 47.074219 64.46875 46.617188 C 64.820312 46.164062 65.128906 45.683594 65.402344 45.175781 C 65.671875 44.671875 65.898438 44.144531 66.078125 43.601562 C 66.261719 43.058594 66.394531 42.503906 66.480469 41.9375 C 66.570312 41.367188 66.609375 40.800781 66.601562 40.226562 C 66.59375 39.652344 66.535156 39.082031 66.429688 38.519531 C 66.324219 37.957031 66.175781 37.40625 65.976562 36.867188 C 65.777344 36.328125 65.535156 35.808594 65.25 35.3125 C 64.964844 34.8125 64.640625 34.34375 64.277344 33.898438 C 63.910156 33.457031 63.511719 33.046875 63.078125 32.667969 C 62.640625 32.292969 62.179688 31.953125 61.6875 31.65625 C 62.460938 30.558594 63.078125 29.378906 63.546875 28.121094 C 64.011719 26.863281 64.308594 25.566406 64.4375 24.230469 C 64.566406 22.894531 64.523438 21.566406 64.308594 20.242188 C 64.09375 18.917969 63.714844 17.644531 63.167969 16.417969 L 58.972656 7.105469 C 58.859375 6.765625 58.660156 6.484375 58.378906 6.257812 C 58.097656 6.03125 57.777344 5.898438 57.421875 5.855469 C 57.078125 5.828125 56.753906 5.886719 56.445312 6.03125 C 56.136719 6.179688 55.890625 6.394531 55.699219 6.675781 L 53.507812 10.011719 C 51.058594 13.695312 49.414062 17.707031 48.566406 22.042969 C 46.882812 21.199219 45.101562 20.769531 43.214844 20.757812 C 41.644531 20.761719 40.128906 21.058594 38.675781 21.644531 C 37.21875 22.230469 35.925781 23.066406 34.792969 24.148438 C 33.660156 23.066406 32.367188 22.230469 30.910156 21.644531 C 29.453125 21.058594 27.941406 20.761719 26.371094 20.757812 C 24.5 20.769531 22.726562 21.191406 21.054688 22.027344 C 20.199219 17.683594 18.539062 13.675781 16.074219 9.992188 L 13.886719 6.675781 C 13.695312 6.394531 13.445312 6.179688 13.136719 6.03125 C 12.828125 5.886719 12.503906 5.828125 12.164062 5.855469 C 11.824219 5.886719 11.515625 6 11.234375 6.195312 C 10.957031 6.390625 10.75 6.644531 10.609375 6.957031 L 6.417969 16.269531 C 5.871094 17.496094 5.488281 18.769531 5.273438 20.09375 C 5.058594 21.417969 5.015625 22.746094 5.144531 24.082031 C 5.273438 25.417969 5.574219 26.710938 6.039062 27.972656 C 6.503906 29.230469 7.125 30.40625 7.894531 31.507812 C 7.382812 31.796875 6.894531 32.125 6.441406 32.496094 C 5.984375 32.871094 5.5625 33.277344 5.175781 33.722656 C 4.789062 34.167969 4.445312 34.640625 4.140625 35.144531 C 3.835938 35.648438 3.578125 36.171875 3.363281 36.71875 C 3.152344 37.269531 2.984375 37.832031 2.871094 38.40625 C 2.753906 38.980469 2.6875 39.5625 2.671875 40.152344 C 2.660156 40.738281 2.695312 41.324219 2.78125 41.902344 C 2.867188 42.484375 3 43.054688 3.1875 43.613281 C 3.371094 44.171875 3.601562 44.707031 3.878906 45.226562 C 4.15625 45.746094 4.476562 46.234375 4.839844 46.699219 C 5.203125 47.164062 5.605469 47.589844 6.042969 47.988281 C 6.476562 48.382812 6.945312 48.734375 7.445312 49.050781 C 7.941406 49.363281 8.464844 49.632812 9.011719 49.859375 C 9.554688 50.085938 10.117188 50.261719 10.691406 50.390625 C 11.269531 50.519531 11.851562 50.597656 12.441406 50.625 C 13.03125 50.65625 13.617188 50.632812 14.203125 50.5625 L 14.203125 56.152344 C 14.203125 57.144531 14.082031 58.125 13.839844 59.085938 C 13.59375 60.050781 13.238281 60.972656 12.765625 61.847656 C 12.292969 62.722656 11.722656 63.527344 11.050781 64.261719 C 10.378906 65 9.625 65.640625 8.792969 66.191406 C 6.984375 67.40625 5.5625 68.96875 4.527344 70.882812 C 3.488281 72.804688 2.96875 74.851562 2.972656 77.03125 L 2.972656 78.503906 C 2.972656 79.359375 3.058594 80.207031 3.226562 81.046875 C 3.394531 81.886719 3.640625 82.703125 3.972656 83.492188 C 4.300781 84.285156 4.703125 85.035156 5.179688 85.746094 C 5.660156 86.457031 6.203125 87.117188 6.8125 87.722656 C 7.417969 88.328125 8.082031 88.867188 8.796875 89.34375 C 9.511719 89.820312 10.265625 90.222656 11.0625 90.550781 C 11.855469 90.878906 12.675781 91.125 13.519531 91.292969 C 14.363281 91.457031 15.214844 91.542969 16.074219 91.542969 C 16.566406 91.542969 17.054688 91.589844 17.535156 91.683594 C 18.019531 91.78125 18.484375 91.921875 18.941406 92.109375 C 19.394531 92.296875 19.824219 92.527344 20.234375 92.796875 C 20.644531 93.070312 21.023438 93.378906 21.367188 93.722656 C 21.714844 94.070312 22.027344 94.445312 22.300781 94.851562 C 22.574219 95.261719 22.804688 95.6875 22.992188 96.140625 C 23.179688 96.59375 23.320312 97.058594 23.417969 97.539062 C 23.515625 98.019531 23.5625 98.503906 23.5625 98.992188 C 23.5625 99.480469 23.609375 99.964844 23.707031 100.445312 C 23.800781 100.925781 23.945312 101.390625 24.132812 101.84375 C 24.320312 102.296875 24.550781 102.726562 24.824219 103.132812 C 25.097656 103.539062 25.40625 103.914062 25.753906 104.261719 C 26.101562 104.605469 26.480469 104.917969 26.890625 105.1875 C 27.296875 105.460938 27.730469 105.6875 28.183594 105.875 C 28.636719 106.0625 29.105469 106.203125 29.589844 106.300781 C 30.070312 106.394531 30.558594 106.445312 31.046875 106.445312 L 38.535156 106.445312 C 39.027344 106.445312 39.515625 106.394531 39.996094 106.300781 C 40.476562 106.203125 40.945312 106.0625 41.402344 105.875 C 41.855469 105.6875 42.285156 105.460938 42.695312 105.1875 C 43.105469 104.917969 43.480469 104.605469 43.828125 104.261719 C 44.175781 103.914062 44.488281 103.539062 44.761719 103.132812 C 45.035156 102.726562 45.265625 102.296875 45.453125 101.84375 C 45.640625 101.390625 45.78125 100.925781 45.878906 100.445312 C 45.972656 99.964844 46.023438 99.480469 46.023438 98.992188 C 46.023438 98.503906 46.070312 98.019531 46.164062 97.539062 C 46.261719 97.058594 46.402344 96.59375 46.59375 96.140625 C 46.78125 95.6875 47.011719 95.261719 47.285156 94.851562 C 47.558594 94.445312 47.867188 94.070312 48.214844 93.722656 C 48.5625 93.378906 48.941406 93.070312 49.347656 92.796875 C 49.757812 92.527344 50.191406 92.296875 50.644531 92.109375 C 51.097656 91.921875 51.566406 91.78125 52.046875 91.683594 C 52.53125 91.589844 53.015625 91.542969 53.507812 91.542969 C 54.367188 91.542969 55.222656 91.457031 56.066406 91.292969 C 56.910156 91.125 57.726562 90.878906 58.523438 90.550781 C 59.316406 90.222656 60.074219 89.820312 60.789062 89.34375 C 61.503906 88.867188 62.164062 88.328125 62.773438 87.722656 C 63.382812 87.117188 63.925781 86.457031 64.402344 85.746094 C 64.878906 85.035156 65.285156 84.285156 65.613281 83.492188 C 65.941406 82.703125 66.191406 81.886719 66.359375 81.046875 C 66.527344 80.207031 66.609375 79.359375 66.609375 78.503906 L 66.609375 77.03125 C 66.609375 75.960938 66.480469 74.902344 66.21875 73.863281 C 65.957031 72.824219 65.570312 71.832031 65.0625 70.886719 C 64.554688 69.941406 63.941406 69.070312 63.21875 68.277344 C 62.496094 67.480469 61.683594 66.785156 60.789062 66.191406 Z M 56.578125 12.078125 L 56.914062 11.574219 L 59.722656 17.890625 C 60.152344 18.855469 60.449219 19.855469 60.609375 20.898438 C 60.769531 21.941406 60.792969 22.984375 60.675781 24.03125 C 60.554688 25.082031 60.300781 26.09375 59.910156 27.074219 C 59.523438 28.054688 59.007812 28.96875 58.375 29.8125 L 58.058594 30.222656 L 57.964844 30.222656 C 57.429688 30.132812 56.894531 30.089844 56.355469 30.089844 C 55.949219 30.066406 55.542969 30.066406 55.136719 30.089844 C 55 29.507812 54.820312 28.933594 54.59375 28.378906 C 54.59375 28.191406 54.425781 28.003906 54.332031 27.820312 C 54.238281 27.632812 54.015625 27.109375 53.808594 26.777344 C 53.601562 26.441406 53.546875 26.347656 53.398438 26.140625 C 53.246094 25.9375 53.003906 25.566406 52.796875 25.304688 L 52.292969 24.707031 L 51.972656 24.335938 C 52.578125 19.902344 54.113281 15.816406 56.578125 12.078125 Z M 9.785156 17.890625 L 12.59375 11.574219 L 12.929688 12.078125 C 15.472656 15.851562 17.058594 19.984375 17.683594 24.484375 L 17.347656 24.875 L 16.878906 25.414062 C 16.636719 25.714844 16.429688 26.011719 16.226562 26.328125 C 16.019531 26.644531 15.964844 26.699219 15.851562 26.90625 C 15.652344 27.257812 15.46875 27.617188 15.308594 27.984375 C 15.308594 28.152344 15.140625 28.320312 15.066406 28.507812 C 14.839844 29.066406 14.660156 29.636719 14.523438 30.222656 C 14.058594 30.1875 13.597656 30.1875 13.136719 30.222656 L 12.820312 30.222656 C 12.429688 30.238281 12.042969 30.273438 11.65625 30.332031 L 11.507812 30.332031 L 11.191406 29.921875 C 10.546875 29.074219 10.023438 28.152344 9.628906 27.164062 C 9.234375 26.171875 8.976562 25.148438 8.859375 24.089844 C 8.738281 23.03125 8.765625 21.976562 8.929688 20.925781 C 9.097656 19.871094 9.402344 18.859375 9.84375 17.890625 Z M 13.269531 46.835938 C 12.878906 46.839844 12.492188 46.804688 12.109375 46.738281 C 11.726562 46.671875 11.351562 46.570312 10.988281 46.4375 C 10.621094 46.304688 10.273438 46.140625 9.9375 45.945312 C 9.601562 45.75 9.285156 45.527344 8.988281 45.277344 C 8.691406 45.023438 8.421875 44.75 8.175781 44.449219 C 7.929688 44.152344 7.710938 43.832031 7.519531 43.496094 C 7.332031 43.15625 7.171875 42.804688 7.046875 42.4375 C 6.921875 42.074219 6.828125 41.699219 6.769531 41.316406 C 6.707031 40.933594 6.683594 40.546875 6.691406 40.160156 C 6.703125 39.773438 6.746094 39.390625 6.824219 39.011719 C 6.902344 38.632812 7.011719 38.265625 7.15625 37.90625 C 7.300781 37.542969 7.472656 37.199219 7.679688 36.871094 C 7.886719 36.542969 8.117188 36.234375 8.378906 35.949219 C 8.640625 35.660156 8.925781 35.398438 9.230469 35.164062 C 9.539062 34.925781 9.863281 34.71875 10.210938 34.539062 C 10.554688 34.359375 10.914062 34.210938 11.285156 34.097656 C 12.6875 33.65625 14.078125 33.695312 15.457031 34.207031 C 15.664062 34.28125 15.875 34.320312 16.09375 34.320312 L 16.414062 34.320312 C 16.675781 34.277344 16.917969 34.183594 17.140625 34.039062 C 17.667969 33.6875 17.941406 33.199219 17.964844 32.570312 C 18.011719 31.410156 18.289062 30.308594 18.796875 29.265625 C 19.304688 28.222656 20 27.324219 20.886719 26.570312 C 21.640625 25.898438 22.488281 25.386719 23.433594 25.027344 C 24.378906 24.667969 25.359375 24.484375 26.371094 24.484375 C 27.742188 24.492188 29.035156 24.808594 30.25 25.441406 C 31.464844 26.074219 32.46875 26.945312 33.257812 28.0625 C 33.34375 28.183594 33.445312 28.292969 33.554688 28.386719 C 33.667969 28.484375 33.792969 28.570312 33.925781 28.636719 C 34.058594 28.703125 34.195312 28.757812 34.339844 28.792969 C 34.484375 28.828125 34.632812 28.84375 34.78125 28.84375 C 34.933594 28.84375 35.078125 28.828125 35.222656 28.792969 C 35.371094 28.757812 35.507812 28.703125 35.640625 28.636719 C 35.773438 28.570312 35.894531 28.484375 36.007812 28.386719 C 36.121094 28.292969 36.222656 28.183594 36.308594 28.0625 C 37.101562 26.941406 38.105469 26.066406 39.324219 25.4375 C 40.542969 24.804688 41.839844 24.488281 43.214844 24.484375 C 43.753906 24.488281 44.285156 24.539062 44.8125 24.644531 C 45.34375 24.75 45.855469 24.902344 46.355469 25.101562 C 46.851562 25.304688 47.328125 25.550781 47.78125 25.839844 C 48.230469 26.132812 48.652344 26.464844 49.039062 26.835938 C 49.425781 27.207031 49.777344 27.609375 50.089844 28.046875 C 50.398438 28.484375 50.664062 28.945312 50.886719 29.433594 C 51.109375 29.921875 51.285156 30.425781 51.410156 30.949219 C 51.535156 31.46875 51.613281 31.996094 51.636719 32.53125 C 51.65625 32.96875 51.8125 33.351562 52.105469 33.679688 C 52.394531 34.007812 52.757812 34.207031 53.191406 34.28125 L 53.507812 34.28125 C 53.726562 34.28125 53.941406 34.246094 54.144531 34.171875 C 55.148438 33.789062 56.183594 33.664062 57.253906 33.796875 C 57.589844 33.847656 57.917969 33.921875 58.246094 34.019531 C 58.628906 34.125 59.003906 34.261719 59.363281 34.429688 C 59.726562 34.601562 60.070312 34.800781 60.390625 35.035156 C 60.714844 35.265625 61.015625 35.527344 61.292969 35.8125 C 61.570312 36.101562 61.816406 36.410156 62.035156 36.742188 C 62.253906 37.074219 62.441406 37.425781 62.597656 37.789062 C 62.753906 38.15625 62.875 38.535156 62.957031 38.921875 C 63.042969 39.3125 63.09375 39.703125 63.109375 40.101562 C 63.121094 40.5 63.097656 40.894531 63.039062 41.289062 C 62.980469 41.679688 62.886719 42.066406 62.753906 42.441406 C 62.625 42.816406 62.460938 43.179688 62.265625 43.523438 C 62.070312 43.871094 61.84375 44.195312 61.589844 44.5 C 61.332031 44.804688 61.050781 45.085938 60.742188 45.339844 C 60.433594 45.59375 60.105469 45.816406 59.757812 46.011719 C 59.410156 46.207031 59.046875 46.367188 58.667969 46.496094 C 58.289062 46.621094 57.902344 46.714844 57.507812 46.773438 C 57.113281 46.832031 56.714844 46.851562 56.316406 46.835938 C 55.5625 46.828125 54.832031 46.691406 54.125 46.425781 C 53.503906 46.21875 52.929688 46.3125 52.40625 46.707031 C 51.867188 47.097656 51.597656 47.625 51.601562 48.289062 C 51.59375 48.371094 51.59375 48.453125 51.601562 48.53125 C 51.554688 49.050781 51.464844 49.558594 51.324219 50.058594 C 51.1875 50.558594 51.003906 51.042969 50.773438 51.507812 C 50.542969 51.972656 50.269531 52.414062 49.957031 52.832031 C 49.644531 53.246094 49.292969 53.628906 48.910156 53.976562 C 48.523438 54.328125 48.109375 54.640625 47.664062 54.914062 C 47.222656 55.183594 46.753906 55.414062 46.269531 55.601562 C 45.78125 55.785156 45.28125 55.925781 44.765625 56.019531 C 44.253906 56.109375 43.738281 56.15625 43.214844 56.152344 C 41.84375 56.144531 40.550781 55.824219 39.335938 55.195312 C 38.121094 54.5625 37.117188 53.6875 36.328125 52.574219 C 36.242188 52.453125 36.140625 52.34375 36.027344 52.246094 C 35.914062 52.148438 35.792969 52.066406 35.660156 52 C 35.527344 51.929688 35.386719 51.878906 35.242188 51.84375 C 35.097656 51.808594 34.949219 51.789062 34.800781 51.789062 C 34.652344 51.789062 34.503906 51.808594 34.359375 51.84375 C 34.214844 51.878906 34.074219 51.929688 33.941406 52 C 33.808594 52.066406 33.6875 52.148438 33.574219 52.246094 C 33.460938 52.34375 33.363281 52.453125 33.277344 52.574219 C 32.484375 53.691406 31.480469 54.566406 30.257812 55.199219 C 29.039062 55.828125 27.742188 56.148438 26.371094 56.152344 C 25.847656 56.15625 25.328125 56.113281 24.8125 56.023438 C 24.296875 55.933594 23.792969 55.796875 23.304688 55.609375 C 22.816406 55.425781 22.347656 55.199219 21.902344 54.925781 C 21.457031 54.652344 21.039062 54.339844 20.652344 53.992188 C 20.265625 53.640625 19.914062 53.257812 19.597656 52.839844 C 19.28125 52.425781 19.011719 51.984375 18.777344 51.515625 C 18.546875 51.050781 18.363281 50.566406 18.222656 50.0625 C 18.082031 49.5625 17.992188 49.050781 17.945312 48.53125 C 17.945312 48.53125 17.945312 48.253906 17.945312 48.179688 C 17.945312 48.027344 17.929688 47.882812 17.894531 47.734375 C 17.859375 47.589844 17.804688 47.453125 17.734375 47.320312 C 17.667969 47.1875 17.582031 47.0625 17.484375 46.953125 C 17.382812 46.839844 17.273438 46.738281 17.148438 46.652344 C 17.027344 46.566406 16.894531 46.496094 16.753906 46.445312 C 16.617188 46.390625 16.472656 46.351562 16.324219 46.332031 C 16.171875 46.3125 16.023438 46.3125 15.875 46.328125 C 15.726562 46.34375 15.582031 46.375 15.4375 46.425781 C 14.738281 46.6875 14.015625 46.824219 13.269531 46.835938 Z M 62.867188 78.503906 C 62.867188 79.113281 62.808594 79.71875 62.6875 80.320312 C 62.566406 80.917969 62.390625 81.503906 62.15625 82.066406 C 61.917969 82.632812 61.632812 83.167969 61.289062 83.675781 C 60.949219 84.1875 60.5625 84.65625 60.125 85.089844 C 59.691406 85.519531 59.21875 85.90625 58.707031 86.246094 C 58.195312 86.585938 57.65625 86.875 57.089844 87.109375 C 56.523438 87.339844 55.9375 87.519531 55.335938 87.636719 C 54.730469 87.757812 54.125 87.816406 53.507812 87.816406 C 52.769531 87.816406 52.042969 87.886719 51.316406 88.03125 C 50.59375 88.175781 49.890625 88.386719 49.210938 88.667969 C 48.53125 88.949219 47.882812 89.292969 47.269531 89.699219 C 46.65625 90.109375 46.089844 90.570312 45.566406 91.089844 C 45.046875 91.609375 44.582031 92.171875 44.171875 92.785156 C 43.761719 93.394531 43.414062 94.039062 43.132812 94.714844 C 42.851562 95.394531 42.636719 96.09375 42.496094 96.8125 C 42.351562 97.53125 42.277344 98.257812 42.277344 98.992188 C 42.277344 99.488281 42.183594 99.960938 41.992188 100.417969 C 41.804688 100.875 41.535156 101.277344 41.183594 101.628906 C 40.832031 101.976562 40.425781 102.246094 39.96875 102.433594 C 39.507812 102.625 39.03125 102.71875 38.535156 102.71875 L 31.046875 102.71875 C 30.550781 102.71875 30.074219 102.625 29.617188 102.433594 C 29.15625 102.246094 28.753906 101.976562 28.402344 101.628906 C 28.050781 101.277344 27.78125 100.875 27.589844 100.417969 C 27.398438 99.960938 27.304688 99.488281 27.304688 98.992188 C 27.304688 98.257812 27.234375 97.53125 27.089844 96.8125 C 26.945312 96.09375 26.734375 95.394531 26.449219 94.714844 C 26.167969 94.039062 25.824219 93.394531 25.414062 92.785156 C 25.003906 92.171875 24.539062 91.609375 24.015625 91.089844 C 23.496094 90.570312 22.925781 90.109375 22.3125 89.699219 C 21.703125 89.292969 21.054688 88.949219 20.371094 88.667969 C 19.691406 88.386719 18.988281 88.175781 18.265625 88.03125 C 17.542969 87.886719 16.8125 87.816406 16.074219 87.816406 C 15.460938 87.816406 14.851562 87.757812 14.25 87.636719 C 13.648438 87.519531 13.0625 87.339844 12.492188 87.109375 C 11.925781 86.875 11.386719 86.585938 10.875 86.246094 C 10.363281 85.90625 9.890625 85.519531 9.457031 85.089844 C 9.023438 84.65625 8.636719 84.1875 8.292969 83.675781 C 7.953125 83.167969 7.664062 82.632812 7.429688 82.066406 C 7.195312 81.503906 7.015625 80.917969 6.898438 80.320312 C 6.777344 79.71875 6.71875 79.113281 6.71875 78.503906 L 6.71875 77.03125 C 6.714844 75.472656 7.082031 74.007812 7.820312 72.636719 C 8.5625 71.269531 9.578125 70.152344 10.871094 69.28125 C 11.933594 68.582031 12.898438 67.765625 13.761719 66.832031 C 14.625 65.898438 15.363281 64.875 15.980469 63.765625 C 16.597656 62.65625 17.070312 61.488281 17.402344 60.261719 C 17.734375 59.039062 17.917969 57.792969 17.945312 56.523438 C 18.191406 56.765625 18.453125 56.96875 18.714844 57.195312 C 19.1875 57.566406 19.6875 57.902344 20.210938 58.199219 L 20.453125 58.347656 C 20.96875 58.628906 21.496094 58.871094 22.046875 59.074219 L 22.363281 59.1875 C 22.933594 59.378906 23.511719 59.527344 24.105469 59.632812 L 24.367188 59.632812 C 24.988281 59.738281 25.609375 59.792969 26.238281 59.800781 C 27.828125 59.824219 29.359375 59.546875 30.839844 58.972656 C 32.320312 58.402344 33.636719 57.570312 34.792969 56.484375 C 35.925781 57.570312 37.21875 58.402344 38.675781 58.988281 C 40.128906 59.574219 41.644531 59.871094 43.214844 59.875 C 43.84375 59.867188 44.464844 59.8125 45.085938 59.707031 L 45.347656 59.707031 C 45.941406 59.601562 46.519531 59.453125 47.089844 59.261719 L 47.40625 59.148438 C 47.957031 58.945312 48.484375 58.703125 49 58.421875 L 49.261719 58.273438 C 49.785156 57.976562 50.285156 57.640625 50.757812 57.269531 C 51.019531 57.0625 51.261719 56.839844 51.507812 56.617188 C 51.53125 57.886719 51.707031 59.132812 52.039062 60.359375 C 52.367188 61.585938 52.839844 62.757812 53.453125 63.871094 C 54.066406 64.984375 54.808594 66.007812 55.671875 66.941406 C 56.535156 67.875 57.5 68.691406 58.5625 69.394531 C 59.207031 69.804688 59.792969 70.289062 60.320312 70.847656 C 60.847656 71.402344 61.296875 72.011719 61.671875 72.679688 C 62.046875 73.34375 62.335938 74.046875 62.539062 74.78125 C 62.742188 75.519531 62.851562 76.269531 62.867188 77.03125 Z M 62.867188 78.503906 " fill-opacity="1" fill-rule="nonzero"/></g><path fill="#1f2b37" d="M 39.078125 86.492188 C 38.792969 86.765625 38.480469 87.011719 38.148438 87.222656 C 37.816406 87.4375 37.464844 87.617188 37.097656 87.765625 C 36.730469 87.910156 36.351562 88.023438 35.960938 88.097656 C 35.570312 88.171875 35.179688 88.210938 34.78125 88.210938 C 34.386719 88.210938 33.992188 88.171875 33.605469 88.097656 C 33.214844 88.023438 32.835938 87.910156 32.46875 87.765625 C 32.101562 87.617188 31.75 87.4375 31.417969 87.222656 C 31.082031 87.011719 30.773438 86.765625 30.488281 86.492188 C 30.308594 86.339844 30.105469 86.226562 29.882812 86.148438 C 29.660156 86.074219 29.433594 86.039062 29.199219 86.046875 C 28.960938 86.054688 28.734375 86.109375 28.519531 86.203125 C 28.304688 86.296875 28.113281 86.425781 27.945312 86.589844 C 27.78125 86.757812 27.648438 86.949219 27.554688 87.164062 C 27.460938 87.378906 27.410156 87.601562 27.398438 87.835938 C 27.390625 88.070312 27.425781 88.300781 27.503906 88.519531 C 27.578125 88.742188 27.695312 88.941406 27.847656 89.121094 C 29.257812 90.542969 30.949219 91.441406 32.921875 91.820312 L 32.921875 97.128906 C 32.921875 97.378906 32.96875 97.613281 33.0625 97.84375 C 33.15625 98.070312 33.292969 98.273438 33.46875 98.445312 C 33.644531 98.621094 33.847656 98.757812 34.074219 98.851562 C 34.304688 98.945312 34.542969 98.992188 34.792969 98.992188 C 35.039062 98.992188 35.277344 98.945312 35.507812 98.851562 C 35.738281 98.757812 35.941406 98.621094 36.117188 98.445312 C 36.289062 98.273438 36.425781 98.070312 36.519531 97.84375 C 36.617188 97.613281 36.664062 97.378906 36.664062 97.128906 L 36.664062 91.820312 C 38.632812 91.445312 40.324219 90.554688 41.734375 89.140625 C 41.890625 88.960938 42.003906 88.761719 42.082031 88.539062 C 42.160156 88.316406 42.195312 88.089844 42.183594 87.855469 C 42.175781 87.621094 42.125 87.394531 42.03125 87.179688 C 41.933594 86.964844 41.804688 86.777344 41.636719 86.609375 C 41.472656 86.445312 41.28125 86.316406 41.0625 86.21875 C 40.847656 86.125 40.621094 86.074219 40.386719 86.066406 C 40.152344 86.058594 39.921875 86.089844 39.699219 86.167969 C 39.476562 86.246094 39.277344 86.359375 39.097656 86.511719 Z M 39.078125 86.492188 " fill-opacity="1" fill-rule="nonzero"/><path fill="#1f2b37" d="M 21.691406 61.738281 C 21.441406 61.738281 21.203125 61.785156 20.972656 61.878906 C 20.746094 61.976562 20.542969 62.109375 20.367188 62.285156 C 20.191406 62.457031 20.054688 62.660156 19.960938 62.886719 C 19.867188 63.117188 19.820312 63.355469 19.820312 63.601562 L 19.820312 67.328125 C 19.820312 67.574219 19.867188 67.8125 19.960938 68.039062 C 20.054688 68.269531 20.191406 68.46875 20.367188 68.644531 C 20.542969 68.820312 20.746094 68.953125 20.972656 69.046875 C 21.203125 69.140625 21.441406 69.1875 21.691406 69.1875 C 21.9375 69.1875 22.175781 69.140625 22.40625 69.046875 C 22.636719 68.953125 22.839844 68.820312 23.015625 68.644531 C 23.1875 68.46875 23.324219 68.269531 23.417969 68.039062 C 23.515625 67.8125 23.5625 67.574219 23.5625 67.328125 L 23.5625 63.601562 C 23.5625 63.355469 23.515625 63.117188 23.417969 62.886719 C 23.324219 62.660156 23.1875 62.457031 23.015625 62.285156 C 22.839844 62.109375 22.636719 61.976562 22.40625 61.878906 C 22.175781 61.785156 21.9375 61.738281 21.691406 61.738281 Z M 21.691406 61.738281 " fill-opacity="1" fill-rule="nonzero"/><path fill="#1f2b37" d="M 47.894531 61.738281 C 47.644531 61.738281 47.40625 61.785156 47.175781 61.878906 C 46.949219 61.976562 46.746094 62.109375 46.570312 62.285156 C 46.394531 62.457031 46.257812 62.660156 46.164062 62.886719 C 46.070312 63.117188 46.023438 63.355469 46.023438 63.601562 L 46.023438 67.328125 C 46.023438 67.574219 46.070312 67.8125 46.164062 68.039062 C 46.257812 68.269531 46.394531 68.46875 46.570312 68.644531 C 46.746094 68.820312 46.949219 68.953125 47.175781 69.046875 C 47.40625 69.140625 47.644531 69.1875 47.894531 69.1875 C 48.140625 69.1875 48.378906 69.140625 48.609375 69.046875 C 48.839844 68.953125 49.042969 68.820312 49.21875 68.644531 C 49.394531 68.46875 49.527344 68.269531 49.621094 68.039062 C 49.71875 67.8125 49.765625 67.574219 49.765625 67.328125 L 49.765625 63.601562 C 49.765625 63.355469 49.71875 63.117188 49.621094 62.886719 C 49.527344 62.660156 49.394531 62.457031 49.21875 62.285156 C 49.042969 62.109375 48.839844 61.976562 48.609375 61.878906 C 48.378906 61.785156 48.140625 61.738281 47.894531 61.738281 Z M 47.894531 61.738281 " fill-opacity="1" fill-rule="nonzero"/><g fill="#1f2b37" fill-opacity="1"><g transform="translate(68.385684, 47.705392)"><g><path d="M 17.421875 -4.390625 L 7.859375 -4.390625 L 6.078125 0 L -0.453125 0 L 9.53125 -22.625 L 15.84375 -22.625 L 25.859375 0 L 19.203125 0 Z M 15.546875 -9.109375 L 12.640625 -16.359375 L 9.734375 -9.109375 Z M 15.546875 -9.109375 "/></g></g></g><g fill="#1f2b37" fill-opacity="1"><g transform="translate(93.782064, 47.705392)"><g><path d="M 1.96875 -23.984375 L 8.109375 -23.984375 L 8.109375 0 L 1.96875 0 Z M 1.96875 -23.984375 "/></g></g></g><g fill="#1f2b37" fill-opacity="1"><g transform="translate(103.895374, 47.705392)"><g><path d="M 13 -17.8125 C 14.59375 -17.8125 16.039062 -17.4375 17.34375 -16.6875 C 18.644531 -15.945312 19.675781 -14.890625 20.4375 -13.515625 C 21.207031 -12.148438 21.59375 -10.566406 21.59375 -8.765625 C 21.59375 -6.953125 21.207031 -5.359375 20.4375 -3.984375 C 19.675781 -2.617188 18.644531 -1.5625 17.34375 -0.8125 C 16.039062 -0.0703125 14.59375 0.296875 13 0.296875 C 10.945312 0.296875 9.316406 -0.316406 8.109375 -1.546875 L 8.109375 6.265625 L 1.96875 6.265625 L 1.96875 -17.515625 L 7.828125 -17.515625 L 7.828125 -15.78125 C 8.960938 -17.132812 10.6875 -17.8125 13 -17.8125 Z M 11.703125 -4.59375 C 12.773438 -4.59375 13.65625 -4.960938 14.34375 -5.703125 C 15.039062 -6.453125 15.390625 -7.472656 15.390625 -8.765625 C 15.390625 -10.054688 15.039062 -11.070312 14.34375 -11.8125 C 13.65625 -12.5625 12.773438 -12.9375 11.703125 -12.9375 C 10.628906 -12.9375 9.742188 -12.5625 9.046875 -11.8125 C 8.359375 -11.070312 8.015625 -10.054688 8.015625 -8.765625 C 8.015625 -7.472656 8.359375 -6.453125 9.046875 -5.703125 C 9.742188 -4.960938 10.628906 -4.59375 11.703125 -4.59375 Z M 11.703125 -4.59375 "/></g></g></g><g fill="#1f2b37" fill-opacity="1"><g transform="translate(126.351454, 47.705392)"><g><path d="M 9.4375 -17.8125 C 12.34375 -17.8125 14.5625 -17.148438 16.09375 -15.828125 C 17.625 -14.503906 18.390625 -12.472656 18.390625 -9.734375 L 18.390625 0 L 12.671875 0 L 12.671875 -2.265625 C 11.785156 -0.554688 10.0625 0.296875 7.5 0.296875 C 6.144531 0.296875 4.96875 0.0625 3.96875 -0.40625 C 2.976562 -0.882812 2.226562 -1.53125 1.71875 -2.34375 C 1.21875 -3.15625 0.96875 -4.078125 0.96875 -5.109375 C 0.96875 -6.765625 1.601562 -8.050781 2.875 -8.96875 C 4.144531 -9.882812 6.109375 -10.34375 8.765625 -10.34375 L 12.25 -10.34375 C 12.144531 -12.195312 10.90625 -13.125 8.53125 -13.125 C 7.695312 -13.125 6.847656 -12.988281 5.984375 -12.71875 C 5.117188 -12.445312 4.382812 -12.078125 3.78125 -11.609375 L 1.71875 -15.78125 C 2.6875 -16.425781 3.863281 -16.925781 5.25 -17.28125 C 6.644531 -17.632812 8.039062 -17.8125 9.4375 -17.8125 Z M 9.21875 -3.59375 C 9.925781 -3.59375 10.546875 -3.765625 11.078125 -4.109375 C 11.617188 -4.453125 12.007812 -4.957031 12.25 -5.625 L 12.25 -7.140625 L 9.59375 -7.140625 C 7.8125 -7.140625 6.921875 -6.546875 6.921875 -5.359375 C 6.921875 -4.828125 7.125 -4.398438 7.53125 -4.078125 C 7.9375 -3.753906 8.5 -3.59375 9.21875 -3.59375 Z M 9.21875 -3.59375 "/></g></g></g><g fill="#1f2b37" fill-opacity="1"><g transform="translate(146.642692, 47.705392)"><g><path d="M 10.921875 0.296875 C 8.984375 0.296875 7.25 -0.0859375 5.71875 -0.859375 C 4.1875 -1.640625 2.992188 -2.71875 2.140625 -4.09375 C 1.296875 -5.476562 0.875 -7.046875 0.875 -8.796875 C 0.875 -10.535156 1.296875 -12.085938 2.140625 -13.453125 C 2.992188 -14.828125 4.1875 -15.894531 5.71875 -16.65625 C 7.25 -17.425781 8.984375 -17.8125 10.921875 -17.8125 C 12.910156 -17.8125 14.625 -17.382812 16.0625 -16.53125 C 17.507812 -15.6875 18.535156 -14.507812 19.140625 -13 L 14.390625 -10.578125 C 13.585938 -12.148438 12.421875 -12.9375 10.890625 -12.9375 C 9.796875 -12.9375 8.882812 -12.566406 8.15625 -11.828125 C 7.4375 -11.097656 7.078125 -10.085938 7.078125 -8.796875 C 7.078125 -7.484375 7.4375 -6.453125 8.15625 -5.703125 C 8.882812 -4.960938 9.796875 -4.59375 10.890625 -4.59375 C 12.421875 -4.59375 13.585938 -5.378906 14.390625 -6.953125 L 19.140625 -4.53125 C 18.535156 -3.019531 17.507812 -1.835938 16.0625 -0.984375 C 14.625 -0.128906 12.910156 0.296875 10.921875 0.296875 Z M 10.921875 0.296875 "/></g></g></g><g fill="#1f2b37" fill-opacity="1"><g transform="translate(166.126178, 47.705392)"><g><path d="M 9.4375 -17.8125 C 12.34375 -17.8125 14.5625 -17.148438 16.09375 -15.828125 C 17.625 -14.503906 18.390625 -12.472656 18.390625 -9.734375 L 18.390625 0 L 12.671875 0 L 12.671875 -2.265625 C 11.785156 -0.554688 10.0625 0.296875 7.5 0.296875 C 6.144531 0.296875 4.96875 0.0625 3.96875 -0.40625 C 2.976562 -0.882812 2.226562 -1.53125 1.71875 -2.34375 C 1.21875 -3.15625 0.96875 -4.078125 0.96875 -5.109375 C 0.96875 -6.765625 1.601562 -8.050781 2.875 -8.96875 C 4.144531 -9.882812 6.109375 -10.34375 8.765625 -10.34375 L 12.25 -10.34375 C 12.144531 -12.195312 10.90625 -13.125 8.53125 -13.125 C 7.695312 -13.125 6.847656 -12.988281 5.984375 -12.71875 C 5.117188 -12.445312 4.382812 -12.078125 3.78125 -11.609375 L 1.71875 -15.78125 C 2.6875 -16.425781 3.863281 -16.925781 5.25 -17.28125 C 6.644531 -17.632812 8.039062 -17.8125 9.4375 -17.8125 Z M 9.21875 -3.59375 C 9.925781 -3.59375 10.546875 -3.765625 11.078125 -4.109375 C 11.617188 -4.453125 12.007812 -4.957031 12.25 -5.625 L 12.25 -7.140625 L 9.59375 -7.140625 C 7.8125 -7.140625 6.921875 -6.546875 6.921875 -5.359375 C 6.921875 -4.828125 7.125 -4.398438 7.53125 -4.078125 C 7.9375 -3.753906 8.5 -3.59375 9.21875 -3.59375 Z M 9.21875 -3.59375 "/></g></g></g><g fill="#1f2b37" fill-opacity="1"><g transform="translate(82.851441, 92.176539)"><g><path d="M 8.65625 -17.6875 L 8.65625 -12.703125 L 18.65625 -12.703125 L 18.65625 -7.765625 L 8.65625 -7.765625 L 8.65625 0 L 2.265625 0 L 2.265625 -22.625 L 20.015625 -22.625 L 20.015625 -17.6875 Z M 8.65625 -17.6875 "/></g></g></g><g fill="#1f2b37" fill-opacity="1"><g transform="translate(103.595042, 92.176539)"><g><path d="M 9.4375 -17.8125 C 12.34375 -17.8125 14.5625 -17.148438 16.09375 -15.828125 C 17.625 -14.503906 18.390625 -12.472656 18.390625 -9.734375 L 18.390625 0 L 12.671875 0 L 12.671875 -2.265625 C 11.785156 -0.554688 10.0625 0.296875 7.5 0.296875 C 6.144531 0.296875 4.96875 0.0625 3.96875 -0.40625 C 2.976562 -0.882812 2.226562 -1.53125 1.71875 -2.34375 C 1.21875 -3.15625 0.96875 -4.078125 0.96875 -5.109375 C 0.96875 -6.765625 1.601562 -8.050781 2.875 -8.96875 C 4.144531 -9.882812 6.109375 -10.34375 8.765625 -10.34375 L 12.25 -10.34375 C 12.144531 -12.195312 10.90625 -13.125 8.53125 -13.125 C 7.695312 -13.125 6.847656 -12.988281 5.984375 -12.71875 C 5.117188 -12.445312 4.382812 -12.078125 3.78125 -11.609375 L 1.71875 -15.78125 C 2.6875 -16.425781 3.863281 -16.925781 5.25 -17.28125 C 6.644531 -17.632812 8.039062 -17.8125 9.4375 -17.8125 Z M 9.21875 -3.59375 C 9.925781 -3.59375 10.546875 -3.765625 11.078125 -4.109375 C 11.617188 -4.453125 12.007812 -4.957031 12.25 -5.625 L 12.25 -7.140625 L 9.59375 -7.140625 C 7.8125 -7.140625 6.921875 -6.546875 6.921875 -5.359375 C 6.921875 -4.828125 7.125 -4.398438 7.53125 -4.078125 C 7.9375 -3.753906 8.5 -3.59375 9.21875 -3.59375 Z M 9.21875 -3.59375 "/></g></g></g><g fill="#1f2b37" fill-opacity="1"><g transform="translate(123.88628, 92.176539)"><g><path d="M 7.828125 -15.421875 C 8.453125 -16.210938 9.265625 -16.804688 10.265625 -17.203125 C 11.265625 -17.609375 12.410156 -17.8125 13.703125 -17.8125 L 13.703125 -12.28125 C 13.140625 -12.34375 12.675781 -12.375 12.3125 -12.375 C 11 -12.375 9.96875 -12.019531 9.21875 -11.3125 C 8.476562 -10.601562 8.109375 -9.515625 8.109375 -8.046875 L 8.109375 0 L 1.96875 0 L 1.96875 -17.515625 L 7.828125 -17.515625 Z M 7.828125 -15.421875 "/></g></g></g><g fill="#1f2b37" fill-opacity="1"><g transform="translate(138.200005, 92.176539)"><g><path d="M 24.796875 -17.8125 C 26.953125 -17.8125 28.671875 -17.164062 29.953125 -15.875 C 31.234375 -14.582031 31.875 -12.628906 31.875 -10.015625 L 31.875 0 L 25.734375 0 L 25.734375 -9.015625 C 25.734375 -10.242188 25.5 -11.148438 25.03125 -11.734375 C 24.570312 -12.316406 23.921875 -12.609375 23.078125 -12.609375 C 22.148438 -12.609375 21.40625 -12.285156 20.84375 -11.640625 C 20.289062 -10.992188 20.015625 -10.015625 20.015625 -8.703125 L 20.015625 0 L 13.875 0 L 13.875 -9.015625 C 13.875 -11.410156 12.988281 -12.609375 11.21875 -12.609375 C 10.269531 -12.609375 9.515625 -12.285156 8.953125 -11.640625 C 8.390625 -10.992188 8.109375 -10.015625 8.109375 -8.703125 L 8.109375 0 L 1.96875 0 L 1.96875 -17.515625 L 7.828125 -17.515625 L 7.828125 -15.671875 C 8.472656 -16.390625 9.238281 -16.925781 10.125 -17.28125 C 11.019531 -17.632812 12 -17.8125 13.0625 -17.8125 C 14.289062 -17.8125 15.390625 -17.582031 16.359375 -17.125 C 17.328125 -16.675781 18.113281 -15.988281 18.71875 -15.0625 C 19.40625 -15.945312 20.273438 -16.625 21.328125 -17.09375 C 22.390625 -17.570312 23.546875 -17.8125 24.796875 -17.8125 Z M 24.796875 -17.8125 "/></g></g></g></svg>